<?xml version="1.0" standalone="no"?>
<!DOCTYPE svg PUBLIC "-//W3C//DTD SVG 20010904//EN"
 "http://www.w3.org/TR/2001/REC-SVG-20010904/DTD/svg10.dtd">
<svg version="1.0" xmlns="http://www.w3.org/2000/svg"
 width="78.000000pt" height="78.000000pt" viewBox="0 0 78.000000 78.000000"
 preserveAspectRatio="xMidYMid meet">
<metadata>
Created by potrace 1.11, written by Peter Selinger 2001-2013
</metadata>
<g transform="translate(0.000000,78.000000) scale(0.100000,-0.100000)"
fill="#000000" stroke="none">
<path d="M334 648 c-29 -14 -44 -49 -44 -103 0 -43 -1 -45 -30 -45 -27 0 -30
-3 -30 -30 0 -27 3 -30 30 -30 l30 0 0 -146 0 -145 33 3 32 3 2 125 c0 69 2
133 2 142 1 13 12 18 49 20 43 3 47 5 50 31 3 26 2 27 -47 27 -28 0 -51 3 -52
8 0 4 -2 17 -3 28 -1 12 1 31 5 43 7 17 16 21 58 21 42 0 49 3 54 22 3 12 4
25 1 30 -7 11 -115 9 -140 -4z"/>
<path d="M110 595 c0 -33 2 -35 34 -35 26 0 35 5 39 21 9 34 -3 49 -39 49 -32
0 -34 -2 -34 -35z"/>
<path d="M115 500 c-3 -4 -4 -101 -4 -215 0 -229 2 -225 -62 -225 -31 0 -37
-4 -41 -25 -3 -13 -3 -27 0 -30 3 -3 31 -5 62 -5 49 0 61 4 84 27 l26 26 -2
226 -3 226 -28 1 c-15 1 -30 -2 -32 -6z"/>
<path d="M539 489 c-33 -12 -52 -48 -52 -96 0 -45 44 -89 100 -98 54 -8 88
-27 91 -52 5 -34 -30 -46 -108 -39 -67 7 -68 7 -72 -19 -7 -34 10 -42 99 -44
104 -3 153 30 153 104 0 52 -46 105 -92 105 -33 0 -89 23 -98 40 -7 14 -6 23
7 36 14 13 29 15 81 11 58 -4 64 -3 72 17 4 11 4 26 -1 32 -11 14 -145 16
-180 3z"/>
</g>
</svg>
