<?xml version="1.0"?>
<svg xmlns="http://www.w3.org/2000/svg" viewBox="0 0 512 512" width="512px" height="512px"><g><g id="Beers"><g id="Glyph"><path d="M416,120v16c0,5.141-2.812,9.909-5.985,13.818A9.022,9.022,0,0,0,408,155.509h0a9.064,9.064,0,0,0,16.66,4.947l1.353-2.076A24,24,0,0,1,448,144h0a8,8,0,0,0,8-8V8a8,8,0,0,0-8-8H64a8,8,0,0,0-8,8V166.327L14.669,260.793A8,8,0,0,0,22,272H41.313a8,8,0,0,0,7.9-6.8,103.213,103.213,0,0,1,29.279-57.638,9.879,9.879,0,0,0,2.833-6.011l4.94-49.4A23.909,23.909,0,0,1,80,136V120a40,40,0,0,1,40-40H376A40,40,0,0,1,416,120ZM120,40a8,8,0,0,1,0-16H376a8,8,0,0,1,0,16Z" data-original="#000000" class="active-path" data-old_color="#000000" fill="#FFFFFF"/><path d="M504,512H392a8,8,0,0,1-8-8V296a8.011,8.011,0,0,1,.671-3.207l56-128a8,8,0,0,1,14.658,0l56,128A8.011,8.011,0,0,1,512,296V504A8,8,0,0,1,504,512Z" data-original="#000000" class="active-path" data-old_color="#000000" fill="#FFFFFF"/><path d="M360,288H8a8,8,0,0,0-8,8V504a8,8,0,0,0,8,8H360a8,8,0,0,0,8-8V296A8,8,0,0,0,360,288ZM272,464H96a64,64,0,0,1,0-128H272a64,64,0,0,1,0,128Z" data-original="#000000" class="active-path" data-old_color="#000000" fill="#FFFFFF"/><circle cx="88" cy="376" r="8" data-original="#000000" class="active-path" data-old_color="#000000" fill="#FFFFFF"/><circle cx="88" cy="424" r="8" data-original="#000000" class="active-path" data-old_color="#000000" fill="#FFFFFF"/><circle cx="280" cy="424" r="8" data-original="#000000" class="active-path" data-old_color="#000000" fill="#FFFFFF"/><circle cx="280" cy="376" r="8" data-original="#000000" class="active-path" data-old_color="#000000" fill="#FFFFFF"/><path d="M232,376H136a8,8,0,0,0,0,16h96a8,8,0,0,0,0-16Z" data-original="#000000" class="active-path" data-old_color="#000000" fill="#FFFFFF"/><path d="M232,408H136a8,8,0,0,0,0,16h96a8,8,0,0,0,0-16Z" data-original="#000000" class="active-path" data-old_color="#000000" fill="#FFFFFF"/><path d="M174.755,203.146l-5.919-59.19A8,8,0,0,0,176,136V120a24,24,0,0,0-24-24H120a24,24,0,0,0-24,24v16a8,8,0,0,0,7.164,7.956h40.792A8.068,8.068,0,0,1,152,152h0a8,8,0,0,1-8,8H108.8a8,8,0,0,0-7.96,7.2l-3.595,35.942a25.961,25.961,0,0,1-7.477,15.772,87.382,87.382,0,0,0-23.776,43.5A7.976,7.976,0,0,0,73.835,272h79.476a8.02,8.02,0,0,0,7.911-6.843,102.97,102.97,0,0,1,9.192-29.487,53.539,53.539,0,0,0,4.486-31.346Q174.814,203.737,174.755,203.146Z" data-original="#000000" class="active-path" data-old_color="#000000" fill="#FFFFFF"/><path d="M286.754,203.146l-5.919-59.19A8,8,0,0,0,288,136V120a24,24,0,0,0-24-24H232a24,24,0,0,0-24,24v16a8,8,0,0,0,7.164,7.956h40.792A8.068,8.068,0,0,1,264,152h0a8,8,0,0,1-8,8H220.8a8,8,0,0,0-7.96,7.2l-3.595,35.942a25.961,25.961,0,0,1-7.477,15.772,87.382,87.382,0,0,0-23.776,43.5A7.976,7.976,0,0,0,185.835,272h79.476a8.02,8.02,0,0,0,7.911-6.843,102.947,102.947,0,0,1,9.193-29.488,53.544,53.544,0,0,0,4.485-31.345Q286.813,203.737,286.754,203.146Z" data-original="#000000" class="active-path" data-old_color="#000000" fill="#FFFFFF"/><path d="M398.754,203.146l-5.919-59.19A8,8,0,0,0,400,136V120a24,24,0,0,0-24-24H344a24,24,0,0,0-24,24v16a8,8,0,0,0,7.165,7.956h40.791A8.068,8.068,0,0,1,376,152h0a8,8,0,0,1-8,8H332.8a8,8,0,0,0-7.96,7.2l-3.594,35.942a26.013,26.013,0,0,1-7.472,15.765A87.384,87.384,0,0,0,290,262.4a7.981,7.981,0,0,0,7.842,9.6h73.234a8,8,0,0,0,7.329-4.793l16.122-36.85a53.946,53.946,0,0,0,4.242-27.1Z" data-original="#000000" class="active-path" data-old_color="#000000" fill="#FFFFFF"/></g></g></g> </svg>
