<?xml version="1.0"?>
<svg xmlns="http://www.w3.org/2000/svg" id="Capa_1" enable-background="new 0 0 512 512" height="512px" viewBox="0 0 512 512" width="512px" class=""><g><g><path d="m48.161 91.779h65.587v31.868h-65.587z" data-original="#000000" class="active-path" data-old_color="#000000" fill="#FFFFFF"/><path d="m48.161 61.779h65.587v-31.695h28.904v-30h-123.396v30h28.905z" data-original="#000000" class="active-path" data-old_color="#000000" fill="#FFFFFF"/><path d="m398.252 91.779h65.587v31.868h-65.587z" data-original="#000000" class="active-path" data-old_color="#000000" fill="#FFFFFF"/><path d="m398.252 61.779h65.587v-31.695h28.905v-30h-123.396v30h28.904z" data-original="#000000" class="active-path" data-old_color="#000000" fill="#FFFFFF"/><path d="m177.506 366.027v19.056l78.494 43.293 78.494-43.294v-19.064l-78.491-49.478z" data-original="#000000" class="active-path" data-old_color="#000000" fill="#FFFFFF"/><path d="m491.066 170.611c-17.084 0-30.934 13.85-30.934 30.934v30.934h-408.264v-30.934c0-17.084-13.85-30.934-30.934-30.934h-20.934v341.304h512v-341.304zm-126.572 232.185-103.601 57.142h-9.786l-103.602-57.142v-53.321l103.134-65.019h10.725l103.13 65.009z" data-original="#000000" class="active-path" data-old_color="#000000" fill="#FFFFFF"/><path d="m145.16 202.479-23.306-48.833h-63.323c14.195 11.166 23.337 28.479 23.337 47.899v.934z" data-original="#000000" class="active-path" data-old_color="#000000" fill="#FFFFFF"/><path d="m223.207 91.779h65.587v31.868h-65.587z" data-original="#000000" class="active-path" data-old_color="#000000" fill="#FFFFFF"/><path d="m223.207 61.779h65.586v-31.695h28.905v-30h-123.396v30h28.905z" data-original="#000000" class="active-path" data-old_color="#000000" fill="#FFFFFF"/><path d="m430.132 201.545c0-19.42 9.142-36.733 23.337-47.899h-63.324l-23.306 48.833h63.292v-.934z" data-original="#000000" class="active-path" data-old_color="#000000" fill="#FFFFFF"/><path d="m296.9 153.646h-81.8l-23.306 48.833h128.412z" data-original="#000000" class="active-path" data-old_color="#000000" fill="#FFFFFF"/></g></g> </svg>
