<?xml version="1.0"?>
<svg xmlns="http://www.w3.org/2000/svg" id="Solid" height="512px" viewBox="0 0 512 512" width="512px"><g><path d="m216 320h80a8 8 0 0 0 0-16h-80a8 8 0 0 0 0 16z" data-original="#000000" class="active-path" data-old_color="#000000" fill="#FFFFFF"/><path d="m32 368h448v-112h-448zm184-80h80a24 24 0 0 1 0 48h-80a24 24 0 0 1 0-48z" data-original="#000000" class="active-path" data-old_color="#000000" fill="#FFFFFF"/><path d="m32 384h448v40h-448z" data-original="#000000" class="active-path" data-old_color="#000000" fill="#FFFFFF"/><path d="m32 440h448v40h-448z" data-original="#000000" class="active-path" data-old_color="#000000" fill="#FFFFFF"/><path d="m427.261 199.108a8 8 0 0 1 -4.086-6.562l-6.765-128.546h-32.82l-6.765 128.546a8 8 0 0 1 -4.086 6.562 56.136 56.136 0 0 0 -28.156 40.892h110.834a56.136 56.136 0 0 0 -28.156-40.892z" data-original="#000000" class="active-path" data-old_color="#000000" fill="#FFFFFF"/><path d="m376 32h48v16h-48z" data-original="#000000" class="active-path" data-old_color="#000000" fill="#FFFFFF"/><path d="m139.261 199.108a8 8 0 0 1 -4.085-6.562l-6.766-128.546h-32.82l-6.766 128.546a8 8 0 0 1 -4.085 6.562 56.136 56.136 0 0 0 -28.156 40.892h110.834a56.136 56.136 0 0 0 -28.156-40.892z" data-original="#000000" class="active-path" data-old_color="#000000" fill="#FFFFFF"/><path d="m232 32h48v16h-48z" data-original="#000000" class="active-path" data-old_color="#000000" fill="#FFFFFF"/><path d="m283.261 199.108a8 8 0 0 1 -4.086-6.562l-6.765-128.546h-32.82l-6.766 128.546a8 8 0 0 1 -4.085 6.562 56.136 56.136 0 0 0 -28.156 40.892h110.834a56.136 56.136 0 0 0 -28.156-40.892z" data-original="#000000" class="active-path" data-old_color="#000000" fill="#FFFFFF"/><path d="m88 32h48v16h-48z" data-original="#000000" class="active-path" data-old_color="#000000" fill="#FFFFFF"/></g> </svg>
